<?xml version="1.0" standalone="no"?>
<!DOCTYPE svg PUBLIC "-//W3C//DTD SVG 20010904//EN"
 "http://www.w3.org/TR/2001/REC-SVG-20010904/DTD/svg10.dtd">
<svg version="1.0" xmlns="http://www.w3.org/2000/svg"
 width="177.000000pt" height="177.000000pt" viewBox="0 0 177.000000 177.000000"
 preserveAspectRatio="xMidYMid meet">
<metadata>
Created by potrace 1.14, written by Peter Selinger 2001-2017
</metadata>
<g transform="translate(0.000000,177.000000) scale(0.100000,-0.100000)"
fill="#000000" stroke="none">
<path d="M685 1724 c-337 -73 -596 -332 -668 -669 -22 -100 -15 -296 13 -395
65 -226 211 -411 412 -523 64 -36 184 -81 254 -94 22 -4 98 -8 169 -7 102 0
147 5 207 22 320 90 552 336 621 657 22 100 15 296 -13 395 -84 295 -305 515
-603 601 -95 28 -293 34 -392 13z m360 -108 c58 -16 218 -88 242 -110 6 -6 33
-29 60 -51 172 -140 267 -359 258 -600 -5 -157 -44 -273 -136 -405 -52 -74
-64 -87 -137 -148 -94 -78 -234 -144 -342 -160 -97 -15 -261 -7 -340 17 -262
80 -460 284 -527 541 -17 67 -24 253 -11 320 49 262 239 485 492 577 23 8 52
17 66 20 14 2 43 8 65 13 61 12 243 4 310 -14z"/>
<path d="M530 883 l0 -363 100 0 100 0 0 364 0 365 -100 -2 -100 -1 0 -363z"/>
<path d="M820 884 l0 -364 247 2 247 3 0 75 0 75 -147 3 -147 3 -2 282 -3 282
-97 2 -98 1 0 -364z"/>
</g>
</svg>
