<svg width="180" height="180" viewBox="0 0 180 180" fill="none" xmlns="http://www.w3.org/2000/svg">
<path d="M94.7263 43.1818L94.7263 17L101.834 17L101.834 43.1818L94.7263 43.1818ZM91.3577 17L91.3577 43.1818L84.2497 43.1818L84.2497 22.7273L73.6645 22.7273L73.6645 17L91.3577 17Z" fill="#353BE2"/>
<circle cx="90.0002" cy="30" r="28.5" transform="rotate(-180 90.0002 30)" stroke="#353BE2" stroke-width="3"/>
<path d="M85.2742 136.818V163H78.1663V136.818H85.2742ZM88.6428 163V136.818H95.7508V157.273H106.336V163H88.6428Z" fill="#F8CC2F"/>
<circle cx="90.0002" cy="150" r="28.5" stroke="#F8CC2F" stroke-width="3"/>
<path d="M43.1818 85.274L17 85.274L17 78.166L43.1818 78.166L43.1818 85.274ZM17 88.6426L43.1818 88.6426L43.1818 95.7505L22.7273 95.7505L22.7273 106.336L17 106.336L17 88.6426Z" fill="#D9504A"/>
<circle cx="30" cy="90" r="28.5" transform="rotate(90 30 90)" stroke="#D9504A" stroke-width="3"/>
<path d="M136.818 94.726L163 94.726L163 101.834L136.818 101.834L136.818 94.726ZM163 91.3574L136.818 91.3574L136.818 84.2495L157.273 84.2495L157.273 73.6642L163 73.6642L163 91.3574Z" fill="#4CAF50"/>
<circle cx="150" cy="90" r="28.5" transform="rotate(-90 150 90)" stroke="#4CAF50" stroke-width="3"/>
</svg>
